<svg id="text" xmlns="http://www.w3.org/2000/svg" viewBox="0 0 467.14 376.56"><defs><style>.cls-1{fill:#ffb845;}.cls-2{fill:#bfbfbf;}.cls-3{fill:#ffeed2;}.cls-4{fill:#4b565e;}.cls-12,.cls-5{fill:#999;}.cls-6{fill:#e5e5e5;}.cls-7,.cls-9{fill:#353d44;}.cls-7{opacity:0.3;}.cls-8{fill:#46a4de;}.cls-10{fill:#e25a5a;}.cls-11,.cls-12{opacity:0.5;}.cls-13{fill:#5d6469;}.cls-14{fill:#acacac;}.cls-15{fill:#d6d6d6;}.cls-16{fill:#fff;opacity:0.2;}</style></defs><title>web</title><rect class="cls-1" x="118.34" y="68.38" width="215.72" height="197.42"/><rect class="cls-2" x="118.34" y="44.45" width="215.72" height="23.93"/><rect class="cls-3" x="118.34" y="68.38" width="215.72" height="17.95"/><circle class="cls-4" cx="310.13" cy="50.43" r="2.99"/><circle class="cls-4" cx="319.1" cy="50.43" r="2.99"/><circle class="cls-4" cx="328.08" cy="50.43" r="2.99"/><rect class="cls-5" x="121.33" y="56.41" width="17.95" height="8.97"/><rect class="cls-6" x="142.27" y="56.41" width="176.83" height="8.97"/><rect class="cls-5" x="322.1" y="56.41" width="8.97" height="8.97"/><rect class="cls-7" x="124.33" y="44.45" width="209.73" height="215.13"/><rect class="cls-8" x="130.31" y="56.41" width="215.72" height="197.42"/><rect class="cls-2" x="130.31" y="32.48" width="215.72" height="23.93"/><circle class="cls-4" cx="322.1" cy="38.46" r="2.99"/><circle class="cls-4" cx="331.07" cy="38.46" r="2.99"/><circle class="cls-4" cx="340.04" cy="38.46" r="2.99"/><rect class="cls-5" x="133.3" y="44.45" width="17.95" height="8.97"/><rect class="cls-6" x="154.24" y="44.45" width="176.83" height="8.97"/><rect class="cls-5" x="334.06" y="44.45" width="8.97" height="8.97"/><rect class="cls-9" x="214.3" y="176.06" width="95.48" height="5.98"/><rect class="cls-6" x="214.12" y="188.02" width="95.77" height="5.98"/><rect class="cls-6" x="214.12" y="199.99" width="95.66" height="5.98"/><rect class="cls-6" x="214.12" y="211.95" width="95.66" height="5.98"/><rect class="cls-6" x="214.12" y="223.92" width="72.26" height="5.98"/><rect class="cls-6" x="226.04" y="68.38" width="23.93" height="5.98"/><rect class="cls-9" x="190.43" y="80.34" width="95.77" height="5.98"/><rect class="cls-6" x="190.43" y="104.27" width="95.66" height="5.98"/><rect class="cls-6" x="190.43" y="116.23" width="72.26" height="5.98"/><rect class="cls-6" x="163.35" y="176.06" width="41.88" height="53.84"/><rect class="cls-2" x="169.33" y="182.04" width="29.91" height="41.88"/><rect class="cls-6" x="163.27" y="134.18" width="29.91" height="29.91"/><rect class="cls-2" x="169.25" y="140.16" width="17.95" height="17.95"/><rect class="cls-6" x="203.23" y="134.18" width="29.91" height="29.91"/><rect class="cls-2" x="209.21" y="140.16" width="17.95" height="17.95"/><rect class="cls-6" x="283.15" y="134.18" width="29.91" height="29.91"/><rect class="cls-2" x="289.13" y="140.16" width="17.95" height="17.95"/><rect class="cls-6" x="243.19" y="134.18" width="29.91" height="29.91"/><rect class="cls-2" x="249.17" y="140.16" width="17.95" height="17.95"/><rect class="cls-6" x="163.56" y="98.29" width="149.51" height="29.91"/><rect class="cls-2" x="169.54" y="104.27" width="137.54" height="17.95"/><rect class="cls-5" x="118.41" y="285.46" width="227.75" height="91.1"/><rect class="cls-6" x="127.52" y="294.57" width="18.22" height="18.22"/><rect class="cls-6" x="127.52" y="321.9" width="18.22" height="18.22"/><rect class="cls-6" x="154.85" y="294.57" width="18.22" height="18.22"/><rect class="cls-6" x="154.85" y="321.9" width="18.22" height="18.22"/><rect class="cls-6" x="182.18" y="294.57" width="18.22" height="18.22"/><rect class="cls-6" x="182.18" y="321.9" width="18.22" height="18.22"/><rect class="cls-6" x="209.51" y="294.57" width="18.22" height="18.22"/><rect class="cls-6" x="209.51" y="321.9" width="18.22" height="18.22"/><rect class="cls-6" x="127.52" y="349.23" width="18.22" height="18.22"/><rect class="cls-6" x="154.85" y="349.23" width="18.22" height="18.22"/><rect class="cls-6" x="182.18" y="349.23" width="72.65" height="18.22"/><rect class="cls-6" x="236.62" y="294.57" width="18.22" height="18.22"/><rect class="cls-6" x="236.62" y="321.9" width="18.22" height="18.22"/><rect class="cls-6" x="263.95" y="294.57" width="18.22" height="18.22"/><rect class="cls-6" x="263.95" y="321.9" width="18.22" height="18.22"/><rect class="cls-6" x="263.95" y="349.23" width="18.22" height="18.22"/><rect class="cls-6" x="291.5" y="294.57" width="18.22" height="18.22"/><rect class="cls-6" x="291.5" y="321.9" width="18.22" height="18.22"/><rect class="cls-6" x="318.83" y="294.57" width="18.22" height="18.22"/><rect class="cls-6" x="318.83" y="321.9" width="18.22" height="18.22"/><rect class="cls-6" x="291.5" y="349.23" width="18.22" height="18.22"/><rect class="cls-6" x="318.83" y="321.9" width="18.22" height="45.55"/><rect class="cls-9" x="366.47" y="49.26" width="100.67" height="134.22"/><rect class="cls-10" x="382.92" y="156.22" width="17.11" height="4.19"/><g class="cls-11"><rect class="cls-5" x="378.95" y="147.83" width="29.47" height="4.19"/></g><rect class="cls-5" x="374.86" y="164.61" width="11.17" height="4.19"/><g class="cls-11"><rect class="cls-5" x="394.45" y="164.61" width="22.36" height="4.19"/></g><rect class="cls-8" x="374.86" y="139.44" width="16.61" height="4.19"/><rect class="cls-5" x="412.7" y="147.83" width="16.61" height="4.19"/><rect class="cls-8" x="374.86" y="55.55" width="29.06" height="4.19"/><g class="cls-11"><rect class="cls-5" x="382.92" y="72.33" width="17.11" height="4.2"/></g><g class="cls-11"><rect class="cls-5" x="383.28" y="114.27" width="17.11" height="4.19"/></g><rect class="cls-10" x="378.95" y="63.94" width="14.16" height="4.2"/><rect class="cls-5" x="374.86" y="80.72" width="11.17" height="4.19"/><rect class="cls-10" x="374.86" y="97.5" width="18.5" height="4.19"/><rect class="cls-5" x="397.55" y="97.5" width="20.97" height="4.19"/><g class="cls-11"><rect class="cls-5" x="378.95" y="105.88" width="14.16" height="4.19"/></g><g class="cls-11"><rect class="cls-5" x="374.86" y="122.66" width="39.85" height="4.19"/></g><rect class="cls-4" x="366.47" y="32.48" width="100.67" height="16.78"/><rect class="cls-12" x="418.9" y="122.66" width="8.39" height="4.19"/><rect class="cls-12" x="431.38" y="122.66" width="4.19" height="4.19"/><rect class="cls-12" x="433.48" y="147.83" width="8.39" height="4.19"/><rect class="cls-5" x="422.72" y="97.5" width="4.19" height="4.19"/><rect class="cls-12" x="404.06" y="72.33" width="6.29" height="4.2"/><rect class="cls-12" x="414.6" y="72.33" width="11.27" height="4.2"/><rect class="cls-12" x="430.07" y="72.33" width="4.2" height="4.2"/><rect class="cls-5" x="450.25" y="55.55" width="8.39" height="4.19"/><rect class="cls-12" x="439.77" y="122.66" width="10.49" height="4.19"/><circle class="cls-5" cx="454.45" cy="36.68" r="1.57"/><circle class="cls-5" cx="458.64" cy="36.68" r="1.57"/><circle class="cls-5" cx="462.84" cy="36.68" r="1.57"/><rect class="cls-5" x="366.47" y="40.87" width="100.67" height="8.39"/><rect class="cls-9" x="368.95" y="42.97" width="8.39" height="4.19"/><rect class="cls-9" x="456.02" y="42.97" width="8.39" height="4.19"/><rect class="cls-9" x="381.42" y="42.97" width="10.69" height="4.19"/><rect class="cls-9" x="395.86" y="42.97" width="8.39" height="4.19"/><rect class="cls-9" x="408.39" y="42.97" width="14.71" height="4.19"/><circle class="cls-9" cx="137.15" cy="6.22" r="6.22"/><rect class="cls-1" x="137.15" width="123.92" height="12.44"/><rect class="cls-10" x="147.63" width="3.11" height="12.44"/><polygon class="cls-3" points="261.06 0 261.06 12.69 278.79 8.26 278.79 4.43 261.06 0"/><polygon class="cls-9" points="278.79 4.43 278.79 8.26 286.44 6.34 278.79 4.43"/><polygon class="cls-6" points="75.76 203.74 0.1 203.74 0.1 333.48 97.41 333.48 97.41 225.39 75.76 203.74"/><rect class="cls-5" x="10.97" y="264.28" width="76.02" height="5.41"/><rect class="cls-5" x="10.81" y="275.1" width="76.18" height="5.41"/><rect class="cls-5" x="10.81" y="285.91" width="76.02" height="5.41"/><rect class="cls-5" x="10.81" y="231.66" width="46.02" height="5.41"/><rect class="cls-5" x="10.81" y="242.66" width="46.02" height="5.41"/><polygon class="cls-5" points="97.28 225.26 75.65 225.26 75.65 203.63 97.28 225.26"/><rect class="cls-9" y="42.25" width="65.51" height="131.02" rx="13.1" ry="13.1"/><rect class="cls-8" x="6.55" y="55.35" width="52.41" height="98.27"/><rect class="cls-13" x="26.2" y="160.17" width="13.1" height="6.55"/><rect class="cls-6" x="6.55" y="55.35" width="52.41" height="6.55"/><rect class="cls-14" x="13.1" y="75.01" width="13.1" height="13.1"/><rect class="cls-6" x="26.2" y="75.01" width="26.2" height="13.1"/><rect class="cls-6" x="26.2" y="94.66" width="26.2" height="13.1"/><rect class="cls-6" x="26.2" y="114.31" width="26.2" height="13.1"/><rect class="cls-14" x="13.1" y="94.66" width="13.1" height="13.1"/><rect class="cls-14" x="13.1" y="114.31" width="13.1" height="13.1"/><circle class="cls-6" cx="25.39" cy="140.52" r="1.84"/><circle class="cls-6" cx="40.13" cy="140.52" r="1.84"/><circle class="cls-14" cx="32.76" cy="140.52" r="1.84"/><rect class="cls-9" x="83.28" y="50.97" width="5.99" height="5.99"/><rect class="cls-9" x="83.28" y="50.97" width="2.99" height="2.99"/><circle class="cls-9" cx="84.77" cy="50.97" r="1.5"/><circle class="cls-9" cx="93.75" cy="50.97" r="1.5"/><rect class="cls-9" x="84.77" y="49.47" width="8.98" height="1.5"/><rect class="cls-9" x="86.27" y="41.99" width="5.99" height="8.98" rx="2" ry="2"/><path class="cls-9" d="M94.5,62.94a0.75,0.75,0,0,1,.75-0.75A3.75,3.75,0,0,1,99,65.94V98.87a0.75,0.75,0,0,1-1.5,0V65.94a2.25,2.25,0,0,0-2.25-2.24A0.75,0.75,0,0,1,94.5,62.94Z"/><rect class="cls-9" x="83.28" y="50.97" width="11.98" height="119.28"/><rect class="cls-10" x="83.28" y="61.06" width="11.98" height="2.99"/><rect class="cls-9" x="83.28" y="50.97" width="11.98" height="11.98"/><path class="cls-9" d="M88.51,189.8V178.28a0.75,0.75,0,1,1,1.5,0V189.8A0.75,0.75,0,1,1,88.51,189.8Z"/><polygon class="cls-9" points="95.25 170.25 83.28 170.25 88.01 187.86 90.52 187.86 95.25 170.25"/><path class="cls-9" d="M93.75,49.47h-9a1.5,1.5,0,0,0-1.5,1.5v12h12V51A1.5,1.5,0,0,0,93.75,49.47Z"/><polygon class="cls-9" points="95.25 170.25 83.28 170.25 88.01 187.86 90.52 187.86 95.25 170.25"/><path class="cls-6" d="M466.45,272.8h0.16v-46a23.06,23.06,0,0,0-46.12-.09c0,0.06,0,.12,0,0.17v0.06a46.12,46.12,0,0,0,46,46.09s0-.08,0-0.11S466.45,272.84,466.45,272.8Z"/><circle class="cls-5" cx="443.54" cy="226.8" r="5.76"/><path class="cls-5" d="M420.49,226.8v0.09c0-.06,0-0.11,0-0.17S420.49,226.77,420.49,226.8Z"/><path class="cls-6" d="M420.49,226.91v0Z"/><path class="cls-15" d="M466.62,272.48c-27.22,0-46.17-22.61-46.17-46.13v46.08a23.17,23.17,0,0,0,23.05,23,23.45,23.45,0,0,0,23.06-22.95h0.05Z"/><path class="cls-1" d="M366.27,203.4V353.58h33.56V203.4H366.27ZM383,345.3a3.7,3.7,0,1,1,3.7-3.7A3.7,3.7,0,0,1,383,345.3Z"/><rect class="cls-9" x="390.2" y="328.76" width="9.62" height="1.97"/><rect class="cls-9" x="390.2" y="312.97" width="9.62" height="1.97"/><rect class="cls-9" x="390.2" y="297.18" width="9.62" height="1.97"/><rect class="cls-9" x="390.2" y="281.38" width="9.62" height="1.97"/><rect class="cls-9" x="390.2" y="265.45" width="9.62" height="1.97"/><rect class="cls-9" x="390.2" y="249.8" width="9.62" height="1.97"/><rect class="cls-9" x="390.2" y="234" width="9.62" height="1.97"/><rect class="cls-9" x="390.2" y="218.21" width="9.62" height="1.97"/><rect class="cls-9" x="395.01" y="320.87" width="4.81" height="1.97"/><rect class="cls-9" x="395.01" y="305.07" width="4.81" height="1.97"/><rect class="cls-9" x="395.01" y="289.28" width="4.81" height="1.97"/><rect class="cls-9" x="395.01" y="273.35" width="4.81" height="1.98"/><rect class="cls-9" x="395.01" y="257.69" width="4.81" height="1.98"/><rect class="cls-9" x="395.01" y="241.9" width="4.81" height="1.97"/><rect class="cls-9" x="395.01" y="226.11" width="4.81" height="1.97"/><path class="cls-16" d="M379.35,341.6a3.7,3.7,0,0,1,3.53-3.69V203.4H366.27V353.58h16.61v-8.3A3.7,3.7,0,0,1,379.35,341.6Z"/></svg>